# OBJ file generated for Artillery Town Defense
v -0.6000 -0.4000 0.1000
v 0.6000 -0.4000 0.1000
v 0.6000 0.4000 0.1000
v -0.6000 0.4000 0.1000
v -0.6000 -0.4000 0.5000
v 0.6000 -0.4000 0.5000
v 0.6000 0.4000 0.5000
v -0.6000 0.4000 0.5000
v -0.7000 -0.6000 0.0500
v 0.7000 -0.6000 0.0500
v 0.7000 -0.4000 0.0500
v -0.7000 -0.4000 0.0500
v -0.7000 -0.6000 0.3500
v 0.7000 -0.6000 0.3500
v 0.7000 -0.4000 0.3500
v -0.7000 -0.4000 0.3500
v -0.7000 0.4000 0.0500
v 0.7000 0.4000 0.0500
v 0.7000 0.6000 0.0500
v -0.7000 0.6000 0.0500
v -0.7000 0.4000 0.3500
v 0.7000 0.4000 0.3500
v 0.7000 0.6000 0.3500
v -0.7000 0.6000 0.3500
v -0.2000 -0.3000 0.4500
v 0.4000 -0.3000 0.4500
v 0.4000 0.3000 0.4500
v -0.2000 0.3000 0.4500
v -0.2000 -0.3000 0.7500
v 0.4000 -0.3000 0.7500
v 0.4000 0.3000 0.7500
v -0.2000 0.3000 0.7500
v -0.8000 0.0500 0.6000
v -0.2000 0.0500 0.6000
v -0.8000 0.0250 0.6433
v -0.2000 0.0250 0.6433
v -0.8000 -0.0250 0.6433
v -0.2000 -0.0250 0.6433
v -0.8000 -0.0500 0.6000
v -0.2000 -0.0500 0.6000
v -0.8000 -0.0250 0.5567
v -0.2000 -0.0250 0.5567
v -0.8000 0.0250 0.5567
v -0.2000 0.0250 0.5567
f 1 2 3 4
f 5 8 7 6
f 1 5 6 2
f 2 6 7 3
f 3 7 8 4
f 4 8 5 1
f 9 10 11 12
f 13 16 15 14
f 9 13 14 10
f 10 14 15 11
f 11 15 16 12
f 12 16 13 9
f 17 18 19 20
f 21 24 23 22
f 17 21 22 18
f 18 22 23 19
f 19 23 24 20
f 20 24 21 17
f 25 26 27 28
f 29 32 31 30
f 25 29 30 26
f 26 30 31 27
f 27 31 32 28
f 28 32 29 25
f 33 34 36 35
f 35 36 38 37
f 37 38 40 39
f 39 40 42 41
f 41 42 44 43
f 43 44 34 33
f 43 41 39 37 35 33
f 34 36 38 40 42 44
