# OBJ file generated for Artillery Town Defense
v 0.0000 0.1000 0.0000
v 1.2000 0.1000 0.0000
v 0.0000 0.0707 0.0707
v 1.2000 0.0707 0.0707
v 0.0000 0.0000 0.1000
v 1.2000 0.0000 0.1000
v 0.0000 -0.0707 0.0707
v 1.2000 -0.0707 0.0707
v 0.0000 -0.1000 0.0000
v 1.2000 -0.1000 0.0000
v 0.0000 -0.0707 -0.0707
v 1.2000 -0.0707 -0.0707
v 0.0000 -0.0000 -0.1000
v 1.2000 -0.0000 -0.1000
v 0.0000 0.0707 -0.0707
v 1.2000 0.0707 -0.0707
f 1 2 4 3
f 3 4 6 5
f 5 6 8 7
f 7 8 10 9
f 9 10 12 11
f 11 12 14 13
f 13 14 16 15
f 15 16 2 1
f 15 13 11 9 7 5 3 1
f 2 4 6 8 10 12 14 16
